<svg xmlns="http://www.w3.org/2000/svg" viewBox="0 0 48 48"><path fill="#FFC107" d="M43.611 20.083H42V20H24v8h11.303c-1.649 4.657-6.083 8-11.303 8-6.627 0-12-5.373-12-12s5.373-12 12-12c3.059 0 5.842 1.154 8.065 3.09l5.656-5.656C34.046 6.053 29.268 4 24 4 12.955 4 4 12.955 4 24s8.955 20 20 20c11.045 0 20-8.955 20-20V20h-4.389z"/><path fill="#FF3D00" d="M6.309 14.515l-3.81 7.71L6.31 24h17.69V14.515H6.309z"/><path fill="#4CAF50" d="M24 44c5.166 0 9.86-1.977 13.409-5.192l-5.656-5.656C31.042 35.033 27.731 36 24 36c-5.202 0-9.619-3.317-11.283-7.94l-3.81 7.71C8.945 40.836 15.91 44 24 44z"/><path fill="#1976D2" d="M43.611 20.083L43.595 20H24v8h11.303c-0.792 2.237-2.231 4.166-4.087 5.571l5.656 5.656C41.602 34.604 44 29.321 44 24c0-1.516-0.18-2.983-0.389-4.083z"/></svg>